<svg width="270" height="264" viewBox="0 0 270 264" fill="none" xmlns="http://www.w3.org/2000/svg">
<circle cx="15" cy="15" r="15" fill="white"/>
<ellipse cx="15" cy="134" rx="15" ry="14" fill="white"/>
<circle cx="15" cy="75" r="15" fill="white"/>
<ellipse cx="15" cy="192" rx="15" ry="14" fill="white"/>
<ellipse cx="15" cy="250" rx="15" ry="14" fill="white"/>
<circle cx="135" cy="15" r="15" fill="white"/>
<ellipse cx="135" cy="134" rx="15" ry="14" fill="white"/>
<circle cx="135" cy="75" r="15" fill="white"/>
<ellipse cx="135" cy="192" rx="15" ry="14" fill="white"/>
<ellipse cx="135" cy="250" rx="15" ry="14" fill="white"/>
<circle cx="75" cy="15" r="15" fill="white"/>
<ellipse cx="75" cy="134" rx="15" ry="14" fill="white"/>
<circle cx="75" cy="75" r="15" fill="white"/>
<ellipse cx="75" cy="192" rx="15" ry="14" fill="white"/>
<ellipse cx="75" cy="250" rx="15" ry="14" fill="white"/>
<circle cx="195" cy="15" r="15" fill="white"/>
<ellipse cx="195" cy="134" rx="15" ry="14" fill="white"/>
<circle cx="195" cy="75" r="15" fill="white"/>
<ellipse cx="195" cy="192" rx="15" ry="14" fill="white"/>
<ellipse cx="195" cy="250" rx="15" ry="14" fill="white"/>
<circle cx="255" cy="15" r="15" fill="white"/>
<ellipse cx="255" cy="134" rx="15" ry="14" fill="white"/>
<circle cx="255" cy="75" r="15" fill="white"/>
<ellipse cx="255" cy="192" rx="15" ry="14" fill="white"/>
<ellipse cx="255" cy="250" rx="15" ry="14" fill="white"/>
</svg>
