<svg width="75" height="148" viewBox="0 0 75 148" fill="none" xmlns="http://www.w3.org/2000/svg">
<g filter="url(#filter0_d_101_6)">
<path d="M33.3211 45.2857C33.935 45.3973 34.5 44.9257 34.5 44.3018V25.7571C34.5 25.114 35.0982 24.6381 35.7249 24.7827L53.3438 28.8486C53.7405 28.9401 54.0421 29.263 54.1064 29.665L55.6772 39.4823C55.729 39.8065 55.6185 40.1355 55.3813 40.3626L32.512 62.2587C32.3488 62.415 32.2434 62.6218 32.2128 62.8457L27.149 99.9094C27.0691 100.494 27.5102 101.02 28.0998 101.044L50.96 101.958C51.5275 101.981 52 101.527 52 100.959V71.9003C52 71.6434 52.0989 71.3962 52.2763 71.2103L72.2025 50.3121C72.3924 50.1129 72.4918 49.8442 72.4773 49.5694L70.5405 12.7693C70.5166 12.3159 70.1903 11.9355 69.7458 11.8429L22.887 2.08063C22.6384 2.02883 22.3793 2.07358 22.1625 2.20581L2.71487 14.0641C2.30121 14.3163 2.12787 14.8288 2.30347 15.2803L12.2973 40.9786C12.4232 41.3026 12.7084 41.5379 13.0504 41.6001L33.3211 45.2857Z" fill="#F8B800"/>
<path d="M27.3459 118.686C27.1678 118.075 27.5976 117.456 28.232 117.409L53.18 115.561C53.6565 115.525 54.0913 115.832 54.218 116.293L59.2248 134.499C59.3751 135.046 59.0414 135.608 58.4896 135.738L34.9234 141.283C34.4057 141.405 33.8833 141.1 33.7344 140.589L27.3459 118.686Z" fill="#F8B800"/>
<path d="M33.3211 45.2857C33.935 45.3973 34.5 44.9257 34.5 44.3018V25.7571C34.5 25.114 35.0982 24.6381 35.7249 24.7827L53.3438 28.8486C53.7405 28.9401 54.0421 29.263 54.1064 29.665L55.6772 39.4823C55.729 39.8065 55.6185 40.1355 55.3813 40.3626L32.512 62.2587C32.3488 62.415 32.2434 62.6218 32.2128 62.8457L27.149 99.9094C27.0691 100.494 27.5102 101.02 28.0998 101.044L50.96 101.958C51.5275 101.981 52 101.527 52 100.959V71.9003C52 71.6434 52.0989 71.3962 52.2763 71.2103L72.2025 50.3121C72.3924 50.1129 72.4918 49.8442 72.4773 49.5694L70.5405 12.7693C70.5166 12.3159 70.1903 11.9355 69.7458 11.8429L22.887 2.08063C22.6384 2.02883 22.3793 2.07358 22.1625 2.20581L2.71487 14.0641C2.30121 14.3163 2.12787 14.8288 2.30347 15.2803L12.2973 40.9786C12.4232 41.3026 12.7084 41.5379 13.0504 41.6001L33.3211 45.2857Z" stroke="#084C4E" stroke-width="3"/>
<path d="M27.3459 118.686C27.1678 118.075 27.5976 117.456 28.232 117.409L53.18 115.561C53.6565 115.525 54.0913 115.832 54.218 116.293L59.2248 134.499C59.3751 135.046 59.0414 135.608 58.4896 135.738L34.9234 141.283C34.4057 141.405 33.8833 141.1 33.7344 140.589L27.3459 118.686Z" stroke="#084C4E" stroke-width="3"/>
</g>
<defs>
<filter id="filter0_d_101_6" x="0.735168" y="0.559601" width="73.2435" height="146.25" filterUnits="userSpaceOnUse" color-interpolation-filters="sRGB">
<feFlood flood-opacity="0" result="BackgroundImageFix"/>
<feColorMatrix in="SourceAlpha" type="matrix" values="0 0 0 0 0 0 0 0 0 0 0 0 0 0 0 0 0 0 127 0" result="hardAlpha"/>
<feOffset dy="4"/>
<feComposite in2="hardAlpha" operator="out"/>
<feColorMatrix type="matrix" values="0 0 0 0 0 0 0 0 0 0 0 0 0 0 0 0 0 0 0.1 0"/>
<feBlend mode="normal" in2="BackgroundImageFix" result="effect1_dropShadow_101_6"/>
<feBlend mode="normal" in="SourceGraphic" in2="effect1_dropShadow_101_6" result="shape"/>
</filter>
</defs>
</svg>
